<?xml version="1.0" standalone="no"?>
<!DOCTYPE svg PUBLIC "-//W3C//DTD SVG 20010904//EN"
 "http://www.w3.org/TR/2001/REC-SVG-20010904/DTD/svg10.dtd">
<svg version="1.0" xmlns="http://www.w3.org/2000/svg"
 width="100.000000pt" height="100.000000pt" viewBox="0 0 100.000000 100.000000"
 preserveAspectRatio="xMidYMid meet">
<metadata>
Created by potrace 1.11, written by Peter Selinger 2001-2013
</metadata>
<g transform="translate(0.000000,100.000000) scale(0.100000,-0.100000)"
fill="#000000" stroke="none">
<path d="M416 873 c-3 -10 -8 -35 -12 -55 -3 -21 -11 -38 -16 -38 -13 0 -38
-26 -38 -39 0 -6 -17 -11 -37 -11 -69 0 -143 -68 -143 -131 0 -22 -15 -39 -36
-39 -2 0 -4 39 -4 88 0 75 3 90 20 105 25 21 26 55 2 73 -24 19 -46 17 -65 -4
-23 -25 -21 -48 3 -69 17 -15 20 -30 20 -103 0 -74 -3 -88 -20 -103 -18 -15
-20 -27 -18 -80 l3 -61 48 -14 47 -13 0 -72 c0 -83 19 -125 72 -157 30 -18 51
-20 254 -20 213 0 222 1 255 23 48 32 69 79 69 158 l0 65 48 15 47 14 3 65 c3
57 0 67 -19 83 -21 17 -21 18 -3 38 16 17 16 22 4 29 -8 6 -18 10 -23 10 -13
0 5 54 24 73 23 22 24 50 3 71 -20 20 -48 20 -68 0 -22 -22 -20 -50 6 -73 19
-18 20 -24 9 -47 -12 -28 -11 -31 24 -49 6 -3 5 -7 -2 -11 -7 -3 -13 -12 -13
-19 0 -8 -7 -11 -20 -8 -14 4 -20 14 -20 33 0 61 -77 130 -146 130 -23 0 -34
6 -42 25 -6 14 -18 25 -27 25 -8 0 -15 3 -16 8 -1 14 -9 57 -14 80 -5 20 -11
22 -80 22 -61 0 -74 -3 -79 -17z"/>
</g>
</svg>
